<svg width="24" height="24" viewBox="0 0 24 24" fill="none" xmlns="http://www.w3.org/2000/svg">
<g clip-path="url(#clip0_3_29)">
<path d="M17.6155 8.31471C14.9008 6.79631 10.5435 4.35811 3.78507 0.573901C3.32942 0.272978 2.80516 0.233542 2.3522 0.386857L13.9478 11.9824L17.6155 8.31471Z" fill="#32BBFF"/>
<path d="M2.35223 0.386963C2.26733 0.415718 2.18472 0.450407 2.10571 0.492307C1.60551 0.762878 1.23795 1.28353 1.23795 1.94202V22.0231C1.23795 22.6816 1.60546 23.2022 2.10571 23.4727C2.18458 23.5146 2.26715 23.5494 2.35195 23.5783L13.9478 11.9825L2.35223 0.386963Z" fill="#32BBFF"/>
<path d="M13.9478 11.9823L2.35199 23.5781C2.80509 23.7326 3.32934 23.6962 3.78513 23.3909C10.3394 19.7207 14.6475 17.3114 17.3937 15.7801C17.4701 15.7371 17.545 15.6952 17.619 15.6536L13.9478 11.9823Z" fill="#32BBFF"/>
<path d="M1.23795 11.9823V22.0229C1.23795 22.6813 1.60546 23.202 2.10571 23.4725C2.18458 23.5144 2.26715 23.5492 2.35195 23.5781L13.9478 11.9823H1.23795Z" fill="#2C9FD9"/>
<path d="M3.7851 0.57341C3.244 0.216117 2.60591 0.226296 2.10571 0.491755L13.7718 12.1579L17.6155 8.31422C14.9008 6.79582 10.5435 4.35762 3.7851 0.57341Z" fill="#29CC5E"/>
<path d="M13.7719 11.8064L2.10573 23.4725C2.60597 23.7379 3.24402 23.7533 3.78511 23.3909C10.3393 19.7207 14.6475 17.3114 17.3936 15.7801C17.4701 15.7371 17.545 15.6952 17.619 15.6536L13.7719 11.8064Z" fill="#D93F21"/>
<path d="M22.4574 11.9823C22.4574 11.4259 22.1767 10.8644 21.6202 10.5531C21.6202 10.5531 20.5796 9.97244 17.39 8.18835L13.596 11.9823L17.3936 15.78C20.5483 14.0088 21.6202 13.4115 21.6202 13.4115C22.1767 13.1002 22.4574 12.5387 22.4574 11.9823Z" fill="#FFD500"/>
<path d="M21.6202 13.4116C22.1766 13.1002 22.4574 12.5387 22.4574 11.9823H13.5959L17.3936 15.78C20.5483 14.0088 21.6202 13.4116 21.6202 13.4116Z" fill="#FFAA00"/>
</g>
<defs>
<clipPath id="clip0_3_29">
<rect width="23.3691" height="23.3691" fill="white" transform="translate(0.163132 0.298279)"/>
</clipPath>
</defs>
</svg>
